<?xml version="1.0" encoding="UTF-8" standalone="no"?><!DOCTYPE svg PUBLIC "-//W3C//DTD SVG 1.1//EN" "http://www.w3.org/Graphics/SVG/1.1/DTD/svg11.dtd"><svg width="100%" height="100%" viewBox="0 0 64 64" version="1.1" xmlns="http://www.w3.org/2000/svg" xmlns:xlink="http://www.w3.org/1999/xlink" xml:space="preserve" xmlns:serif="http://www.serif.com/" style="fill-rule:evenodd;clip-rule:evenodd;"><path d="M60,16l0,32c0,6.623 -5.377,12 -12,12l-32,0c-6.623,0 -12,-5.377 -12,-12l0,-32c0,-6.623 5.377,-12 12,-12l32,0c6.623,0 12,5.377 12,12Z" style="fill:#fff;stroke:#e5e7eb;stroke-width:2px;"/><g><clipPath id="_clip1"><path d="M60,16l0,32c0,6.623 -5.377,12 -12,12l-32,0c-6.623,0 -12,-5.377 -12,-12l0,-32c0,-6.623 5.377,-12 12,-12l32,0c6.623,0 12,5.377 12,12Z"/></clipPath><g clip-path="url(#_clip1)"><rect x="4" y="4" width="56" height="28" style="fill:#fff;"/><rect x="4" y="4" width="18.66" height="28" style="fill:#12813b;"/><rect x="41.33" y="4" width="18.67" height="28" style="fill:#ce2b37;"/><g><clipPath id="_clip2"><rect x="0" y="32" width="64" height="32"/></clipPath><g clip-path="url(#_clip2)"><rect x="0" y="32" width="64" height="32" style="fill:#012169;fill-rule:nonzero;"/><path d="M0,32l64,32m0,-32l-64,32" style="fill-rule:nonzero;stroke:#fff;stroke-width:6.4px;"/><clipPath id="_clip3"><path d="M32,48l32,0l0,16l-32,-16Zm0,0l0,16l-32,0l32,-16Zm0,0l-32,0l0,-16l32,16Zm0,0l0,-16l32,0l-32,16Z"/></clipPath><g clip-path="url(#_clip3)"><path d="M0,32l64,32m0,-32l-64,32" style="fill-rule:nonzero;stroke:#c8102e;stroke-width:4.27px;"/></g><path d="M32,32l0,32m-32,-16l64,0" style="fill-rule:nonzero;stroke:#fff;stroke-width:10.67px;"/><path d="M32,32l0,32m-32,-16l64,0" style="fill-rule:nonzero;stroke:#c8102e;stroke-width:6.4px;"/></g></g></g></g></svg>